<?xml version="1.0" encoding="UTF-8"?>
<svg width="24" height="24" viewBox="0 0 24 24" fill="none" xmlns="http://www.w3.org/2000/svg">
  <path d="M21.14,13.27V9.43C21.14,8.9 20.73,8.47 20.2,8.47C19.67,8.47 19.26,8.9 19.26,9.43V8.29C19.26,7.76 18.85,7.33 18.32,7.33C17.79,7.33 17.38,7.76 17.38,8.29V5.29C17.38,4.76 16.97,4.33 16.44,4.33C15.91,4.33 15.5,4.76 15.5,5.29V7.13C15.5,6.6 15.09,6.17 14.56,6.17C14.03,6.17 13.62,6.6 13.62,7.13V13.4C13.62,11.14 10.21,10.9 10,12.76C8.75,11.75 7,11.74 7,14.16C7,14.91 7,16.17 7,16.91C7,20.8 10.07,22 13.49,22C14.43,22 15.31,21.88 16.08,21.64C19.2,20.53 21.14,16.88 21.14,13.27Z" fill="#4BC292"/>
  <path d="M5,17H3C2.45,17 2,16.55 2,16V8C2,7.45 2.45,7 3,7H5C5.55,7 6,7.45 6,8V16C6,16.55 5.55,17 5,17Z" fill="#4BC292"/>
</svg>
