<?xml version="1.0" encoding="UTF-8"?>
<svg width="24" height="24" viewBox="0 0 24 24" fill="none" xmlns="http://www.w3.org/2000/svg">
  <path d="M17.5,1.5c-0.5,0-0.7,0.2-1.2,0.4c-0.2,0.1-0.5,0.2-0.8,0.3C15.3,2.3,15.1,2.5,15,2.7c-0.2,0.5-0.4,1-0.5,1.5
  c-0.2,0.7-0.3,1.5-0.3,2.2c0,0.5,0,1,0.1,1.6c-0.4-0.8-0.9-1.5-1.4-2.2c-0.4-0.5-0.9-1-1.4-1.4C10.1,2.9,9.5,2.5,8.8,2.2
  C8.5,2.1,8.1,2,7.7,2C7.3,2,6.8,2.1,6.5,2.4C5.8,2.9,5.5,3.8,5.5,4.6c0,0.4,0.1,0.8,0.2,1.1C5.8,6.1,6,6.5,6.2,6.8
  c0.4,0.7,1,1.3,1.6,1.8c0.5,0.5,1.2,0.9,1.8,1.3C9.1,10.2,8.5,10.5,8,10.8c-0.7,0.4-1.4,0.9-2,1.5c-0.6,0.6-1.1,1.3-1.5,2
  c-0.2,0.3-0.3,0.7-0.4,1C4,15.7,4,16.1,4,16.4c0,0.8,0.3,1.6,0.9,2.1c0.3,0.3,0.8,0.4,1.2,0.4c0.4,0,0.8-0.1,1.1-0.2
  c0.8-0.3,1.5-0.7,2.1-1.2c0.7-0.5,1.3-1.1,1.9-1.7c0.2,0.9,0.5,1.8,0.9,2.5c0.2,0.4,0.5,0.9,0.8,1.2c0.3,0.4,0.7,0.7,1.1,0.9
  c0.3,0.2,0.6,0.3,1,0.3c0.3,0,0.6-0.1,0.9-0.3c0.5-0.3,0.9-0.8,1.2-1.3c0.3-0.5,0.4-1,0.6-1.6c0.2-1.2,0.2-2.5,0-3.8
  c-0.1-0.7-0.2-1.3-0.4-2c0.8,0.9,1.7,1.7,2.7,2.3c0.4,0.2,0.7,0.4,1.1,0.5c0.3,0.1,0.7,0.2,1.1,0.2c0.7,0,1.5-0.3,1.9-1
  c0.5-0.7,0.4-1.7,0.1-2.4c-0.2-0.5-0.5-0.9-0.8-1.2c-0.6-0.7-1.3-1.3-2-1.8c-0.8-0.5-1.6-1-2.5-1.5c0.8-0.1,1.5-0.3,2.3-0.5
  c0.7-0.2,1.4-0.4,2-0.8c0.3-0.2,0.6-0.4,0.9-0.6c0.3-0.2,0.5-0.5,0.6-0.9c0.2-0.7,0-1.6-0.6-2.1C19.7,1.7,19,1.5,18.4,1.5
  c-0.3,0-0.6,0-0.9,0.1" fill="#4BC292"/>
</svg>
